<svg width="30" height="30" viewBox="0 0 30 30" fill="none" xmlns="http://www.w3.org/2000/svg">
<g clip-path="url(#clip0_16_48)">
<path d="M23.7695 1.52588e-05C22.4059 1.52588e-05 21.3004 1.10556 21.3004 2.46921C21.3004 3.83514 22.4096 4.9384 23.7695 4.9384C25.1201 4.9384 26.2387 3.84382 26.2387 2.46921C26.2387 1.10556 25.1332 1.52588e-05 23.7695 1.52588e-05Z" fill="white"/>
<path d="M29.8209 17.2833V8.5307C29.8131 6.98389 28.5043 5.72541 26.9575 5.72541H25.7364C25.5986 6.08559 24.4259 9.14892 24.2595 9.58386L24.6077 7.94359C24.6322 7.8284 24.6145 7.70828 24.5577 7.6051L24.0795 6.73545L24.5046 5.96231C24.5679 5.84717 24.4845 5.70584 24.353 5.70584H23.1862C23.0548 5.70584 22.9712 5.84699 23.0346 5.96231L23.4597 6.73545L22.9797 7.60838C22.924 7.70963 22.9059 7.82722 22.9284 7.94054L23.2328 9.58392C23.0803 9.19275 21.9365 6.14934 21.7712 5.72547H20.5616C19.0148 5.72547 17.7061 6.98394 17.6983 8.53076V17.2834C17.6949 17.9414 18.2257 18.4775 18.8836 18.4808C18.8857 18.4808 18.8877 18.4808 18.8898 18.4808C19.545 18.4808 20.0777 17.9513 20.081 17.2954V8.54265C20.0817 8.41574 20.2288 8.31338 20.3557 8.31373C20.4825 8.31408 20.5851 8.41697 20.5851 8.54382C20.5852 11.4562 20.5856 28.003 20.5856 28.5703C20.5856 29.3599 21.2257 29.9999 22.0153 29.9999C22.8048 29.9999 23.445 29.3599 23.445 28.5703V17.1428H24.0623V28.5703C24.0623 29.3599 24.7024 29.9999 25.4919 29.9999C26.2815 29.9999 26.9217 29.3599 26.9217 28.5703C26.9217 9.63156 26.8962 20.5258 26.8957 8.48218C26.8957 8.34343 27.0081 8.23088 27.1469 8.23088C27.2807 8.23082 27.42 8.33845 27.3944 8.54265V17.2953C27.3964 17.7042 27.6483 18.0639 27.9633 18.2769V19.5429H27.9259C27.6264 19.5429 27.3836 19.7857 27.3836 20.0852V24.5783C27.3836 24.8778 27.6264 25.1206 27.9259 25.1206H29.2318C29.5312 25.1206 29.7741 24.8778 29.7741 24.5783V20.0852C29.7741 19.8059 29.5628 19.576 29.2914 19.5463V18.2796C29.6121 18.0648 29.8229 17.6985 29.8209 17.2833Z" fill="white"/>
<path d="M7.78382 5.28966C9.12829 5.28966 10.2182 4.19975 10.2182 2.85527C10.2182 1.5108 9.12829 0.420883 7.78382 0.420883C6.43934 0.420883 5.34943 1.5108 5.34943 2.85527C5.34943 4.19975 6.43934 5.28966 7.78382 5.28966Z" fill="white"/>
<path d="M15.3007 19.4843V18.1841C15.7149 17.8756 15.8903 17.3185 15.6926 16.8145C15.6696 16.7557 13.3753 10.9009 12.535 8.45583C12.0516 7.04911 11.2347 6.06573 9.75412 6.06573L8.24856 9.99913L8.61014 8.29598C8.63422 8.18255 8.61676 8.06425 8.56086 7.96264L8.08954 7.10542L8.50778 6.34482C8.57012 6.23144 8.48797 6.09228 8.35842 6.09228H7.2094C7.08009 6.09228 6.99759 6.23132 7.06005 6.34482L7.47911 7.107L7.00696 7.96581C6.95218 8.06554 6.93425 8.18132 6.9564 8.29288L7.24063 9.99913L5.81388 6.06585C4.33515 6.06585 3.51724 7.04618 3.03279 8.45595C2.18816 10.9137 0.2701 16.1614 0.250822 16.2142C0.0280495 16.8235 0.341408 17.498 0.950665 17.7208C1.55998 17.9436 2.23457 17.6301 2.45728 17.0209C2.47363 16.9762 4.79183 10.5444 4.79183 10.5444C4.79183 10.5444 4.23519 13.5257 3.12332 19.292C3.04504 19.6961 3.35652 20.0694 3.76398 20.0694C4.01699 20.0694 4.32056 20.0694 4.6604 20.0694V28.5904C4.6604 29.3689 5.29146 30 6.07005 30C6.84864 30 7.47969 29.3689 7.47969 28.5904V20.0694C7.68231 20.0694 7.88569 20.0694 8.08831 20.0694V28.5904C8.08831 29.3689 8.71936 30 9.49795 30C10.2765 30 10.9076 29.3689 10.9076 28.5904V20.0694C11.2475 20.0694 11.551 20.0694 11.804 20.0694C12.2135 20.0694 12.5228 19.6956 12.4446 19.292C11.4789 14.3115 10.8389 11.0577 10.7713 10.5045C11.784 13.2791 13.4246 17.4657 13.5056 17.6721C13.6038 17.9227 13.779 18.1199 13.9931 18.2488V19.481H13.9562C13.6613 19.481 13.4222 19.72 13.4222 20.015V24.4396C13.4222 24.7345 13.6613 24.9737 13.9562 24.9737H15.2422C15.5371 24.9737 15.7762 24.7346 15.7762 24.4396V20.015C15.7761 19.7398 15.568 19.5136 15.3007 19.4843Z" fill="white"/>
</g>
<defs>
<clipPath id="clip0_16_48">
<rect width="30" height="30" fill="white"/>
</clipPath>
</defs>
</svg>
