<svg width="30" height="32" viewBox="0 0 30 32" fill="none" xmlns="http://www.w3.org/2000/svg">
<g clip-path="url(#clip0_16_68)">
<path d="M29.331 5.09125H17.3588C16.99 5.09125 16.6898 5.40232 16.6898 5.78466V8.9243H13.3101V5.7846C13.3101 5.40226 13.01 5.09119 12.6411 5.09119H0.668994C0.300059 5.09125 0 5.40226 0 5.7846V13.4851C0 13.8675 0.300059 14.1785 0.668994 14.1785H4.78233V14.5649H4.23778C3.86897 14.5649 3.56892 14.876 3.56892 15.2584C3.56892 15.6408 3.86897 15.9518 4.23778 15.9518H6.52977V19.6197C6.52977 20.0783 6.88979 20.4513 7.33232 20.4513H12.6558V21.0591H11.9038C11.4614 21.0591 11.1015 21.4323 11.1015 21.8909C11.1015 22.3496 11.4614 22.7228 11.9038 22.7228H14.4831V24.1408H13.0617C12.7767 24.1408 12.5448 24.3812 12.5448 24.6767V24.833H3.64981C3.36481 24.833 3.13291 25.0734 3.13291 25.3688C3.13291 25.6643 3.36481 25.9047 3.64981 25.9047H12.5447V26.061C12.5447 26.3564 12.7766 26.5968 13.0616 26.5968H16.9383C17.2233 26.5968 17.4552 26.3564 17.4552 26.061V25.9047H26.3501C26.6351 25.9047 26.867 25.6643 26.867 25.3688C26.867 25.0734 26.6351 24.833 26.3501 24.833H17.4552V24.6767C17.4552 24.3812 17.2233 24.1408 16.9383 24.1408H15.5169V22.7228H18.0962C18.5386 22.7228 18.8985 22.3496 18.8985 21.8909C18.8985 21.4323 18.5386 21.0591 18.0962 21.0591H17.3442V20.4513H22.6677C23.1103 20.4513 23.4702 20.0783 23.4702 19.6197V15.9518H25.7622C26.131 15.9518 26.4311 15.6408 26.4311 15.2584C26.4311 14.876 26.1311 14.5649 25.7622 14.5649H25.2177V14.1785H29.331C29.6999 14.1785 29.9999 13.8674 29.9999 13.4851V5.7846C30 5.40226 29.6999 5.09125 29.331 5.09125ZM6.52977 9.7561V12.299H1.33767V6.47814H11.9723V8.9243H7.33225C6.88979 8.92423 6.52977 9.2974 6.52977 9.7561ZM15 19.9745C14.7152 19.9745 14.4831 19.7343 14.4831 19.4387C14.4831 19.1431 14.7152 18.9028 15 18.9028C15.2848 18.9028 15.5169 19.1431 15.5169 19.4387C15.5169 19.7343 15.2848 19.9745 15 19.9745ZM21.8653 18.1569H8.1346V10.5879H21.8653V18.1569ZM28.6623 12.299H23.4702V9.7561C23.4702 9.2974 23.1103 8.92424 22.6677 8.92424H18.0277V6.47814H28.6623L28.6623 12.299Z" fill="white"/>
</g>
<defs>
<clipPath id="clip0_16_68">
<rect width="30" height="31.1009" fill="white" transform="translate(0 0.293579)"/>
</clipPath>
</defs>
</svg>
