<svg width="30" height="30" viewBox="0 0 30 30" fill="none" xmlns="http://www.w3.org/2000/svg">
<path d="M14.9414 0.234375C13.4801 0.234375 12.2895 1.425 12.2895 2.88633C12.2895 4.34648 13.4684 5.53711 14.9414 5.53711C16.391 5.53711 17.5922 4.34648 17.5922 2.88633C17.5922 1.425 16.4027 0.234375 14.9414 0.234375ZM18.2812 6.09375H11.6016C9.77461 6.09375 8.32031 7.66523 8.32031 9.49219V13.2422H10.6641V10.0781C10.6641 9.87773 10.8152 9.72656 11.0156 9.72656C11.216 9.72656 11.3672 9.87773 11.3672 10.0781V13.2422H18.5156V10.0781C18.5156 9.87773 18.6668 9.72656 18.8672 9.72656C19.0676 9.72656 19.2188 9.87773 19.2188 10.0781V13.2422H21.5625V9.49219C21.5625 7.67695 20.0965 6.09375 18.2812 6.09375ZM12.5203 18.5637C11.9566 18.5637 11.4996 19.0207 11.4996 19.5844C11.4996 20.148 11.9566 20.6051 12.5203 20.6051C13.084 20.6051 13.541 20.148 13.541 19.5844C13.541 19.0207 13.084 18.5637 12.5203 18.5637ZM17.4937 22.7508C16.7906 22.4555 15.982 22.7871 15.6867 23.4902C15.3914 24.1934 15.723 25.0031 16.4262 25.2973C17.1293 25.5926 17.9391 25.2609 18.2332 24.5578C18.5285 23.8547 18.1969 23.0461 17.4937 22.7508ZM17.4937 22.7508C16.7906 22.4555 15.982 22.7871 15.6867 23.4902C15.3914 24.1934 15.723 25.0031 16.4262 25.2973C17.1293 25.5926 17.9391 25.2609 18.2332 24.5578C18.5285 23.8547 18.1969 23.0461 17.4937 22.7508ZM12.5203 18.5637C11.9566 18.5637 11.4996 19.0207 11.4996 19.5844C11.4996 20.148 11.9566 20.6051 12.5203 20.6051C13.084 20.6051 13.541 20.148 13.541 19.5844C13.541 19.0207 13.084 18.5637 12.5203 18.5637ZM1.40625 13.8281V16.9922H4.10156V29.7656H25.7812V16.9922H28.5938V13.8281H1.40625ZM9.93281 19.2633L10.6066 19.1496C10.6559 18.9293 10.7426 18.723 10.8598 18.5379L10.4637 17.9824L10.9184 17.5277L11.4738 17.9227C11.659 17.8066 11.8652 17.7199 12.0855 17.6695L12.1992 16.9969H12.8414L12.9551 17.6695C13.1754 17.7199 13.3816 17.8066 13.5668 17.9227L14.1223 17.5277L14.577 17.9824L14.1809 18.5379C14.298 18.723 14.3848 18.9293 14.434 19.1496L15.1078 19.2633V19.9055L14.434 20.018C14.3848 20.2395 14.298 20.4445 14.1809 20.6309L14.577 21.1863L14.1223 21.6398L13.5668 21.2449C13.3816 21.3621 13.1754 21.4488 12.9551 21.498L12.8414 22.1707H12.1992L12.0855 21.498C11.8652 21.4488 11.659 21.3621 11.4738 21.2449L10.9184 21.6398L10.4637 21.1863L10.8598 20.6309C10.7426 20.4445 10.6559 20.2395 10.6066 20.018L9.93281 19.9055V19.2633ZM13.0617 24.6668L12.6164 24.7418C12.5836 24.8883 12.5262 25.0242 12.4488 25.1473L12.7102 25.5152L12.4102 25.8152L12.0422 25.5539C11.9191 25.6313 11.7832 25.6887 11.6367 25.7215L11.5617 26.1668H11.1363L11.0613 25.7215C10.916 25.6887 10.7801 25.6313 10.657 25.5539L10.2891 25.8152L9.98906 25.5152L10.2504 25.1473C10.173 25.0242 10.1156 24.8883 10.0828 24.7418L9.6375 24.6668V24.2426L10.0828 24.1676C10.1156 24.0211 10.173 23.8852 10.2504 23.7621L9.98906 23.3941L10.2891 23.0941L10.657 23.3555C10.7801 23.2781 10.916 23.2207 11.0613 23.1879L11.1363 22.7426H11.5617L11.6367 23.1879C11.7832 23.2207 11.9191 23.2781 12.0422 23.3555L12.4102 23.0941L12.7102 23.3941L12.4488 23.7621C12.5262 23.8852 12.5836 24.0211 12.6164 24.1676L13.0617 24.2426V24.6668ZM19.575 24.4828L20.3543 24.9762L20.0191 25.7777L19.1203 25.5668C18.9434 25.8152 18.7277 26.0273 18.484 26.1973L18.6867 27.0973L17.8828 27.4266L17.3965 26.6426C17.1047 26.6918 16.8023 26.6918 16.5012 26.6391L16.0078 27.4184L15.2063 27.0832L15.4172 26.1844C15.1687 26.0074 14.9566 25.7918 14.7867 25.548L13.8867 25.7508L13.5574 24.9469L14.3414 24.4605C14.2922 24.1687 14.2922 23.8664 14.3449 23.5652L13.5656 23.0719L13.9008 22.2703L14.7996 22.4812C14.9766 22.2328 15.1934 22.0207 15.4359 21.8508L15.2332 20.9508L16.0371 20.6215L16.5234 21.4055C16.8152 21.3563 17.1176 21.3563 17.4188 21.409L17.9121 20.6297L18.7137 20.9648L18.5027 21.8637C18.7512 22.0406 18.9633 22.2574 19.1332 22.5L20.0332 22.2973L20.3625 23.1012L19.5785 23.5875C19.6277 23.8793 19.6277 24.1816 19.575 24.4828ZM17.4937 22.7508C16.7906 22.4555 15.982 22.7871 15.6867 23.4902C15.3914 24.1934 15.723 25.0031 16.4262 25.2973C17.1293 25.5926 17.9391 25.2609 18.2332 24.5578C18.5285 23.8547 18.1969 23.0461 17.4937 22.7508ZM12.5203 20.6051C13.084 20.6051 13.541 20.148 13.541 19.5844C13.541 19.0207 13.084 18.5637 12.5203 18.5637C11.9566 18.5637 11.4996 19.0207 11.4996 19.5844C11.4996 20.148 11.9566 20.6051 12.5203 20.6051ZM11.3496 23.9813C11.0883 23.9813 10.8762 24.1934 10.8762 24.4547C10.8762 24.716 11.0883 24.9281 11.3496 24.9281C11.6109 24.9281 11.823 24.716 11.823 24.4547C11.823 24.1934 11.6109 23.9813 11.3496 23.9813ZM17.4937 22.7508C16.7906 22.4555 15.982 22.7871 15.6867 23.4902C15.3914 24.1934 15.723 25.0031 16.4262 25.2973C17.1293 25.5926 17.9391 25.2609 18.2332 24.5578C18.5285 23.8547 18.1969 23.0461 17.4937 22.7508ZM17.4937 22.7508C16.7906 22.4555 15.982 22.7871 15.6867 23.4902C15.3914 24.1934 15.723 25.0031 16.4262 25.2973C17.1293 25.5926 17.9391 25.2609 18.2332 24.5578C18.5285 23.8547 18.1969 23.0461 17.4937 22.7508Z" fill="white"/>
</svg>
