<svg width="30" height="30" viewBox="0 0 30 30" fill="none" xmlns="http://www.w3.org/2000/svg">
<g clip-path="url(#clip0_15_7)">
<path d="M15 0C14.4696 -1.54872e-06 13.9608 0.210693 13.5857 0.585742L0.585742 13.5857C0.210693 13.9608 -1.54872e-06 14.4696 0 15L0 28C5.30337e-05 28.5304 0.210784 29.0391 0.585845 29.4142C0.960906 29.7892 1.46958 29.9999 2 30H10.2333C10.7637 29.9999 11.2724 29.7892 11.6475 29.4142C12.0225 29.0391 12.2332 28.5304 12.2333 28V21.3333H17.7667V28C17.7668 28.5304 17.9775 29.0391 18.3525 29.4142C18.7276 29.7892 19.2363 29.9999 19.7667 30H28C28.5304 29.9999 29.0391 29.7892 29.4142 29.4142C29.7892 29.0391 29.9999 28.5304 30 28V15C30 14.4696 29.7893 13.9608 29.4143 13.5857L16.4143 0.585742C16.0392 0.210693 15.5304 -1.54872e-06 15 0ZM15 4.82842L26 15.8284V26H21.7667V19.3333C21.7666 18.8029 21.5559 18.2942 21.1809 17.9191C20.8058 17.5441 20.2971 17.3334 19.7667 17.3333H10.2333C9.70288 17.3334 9.19421 17.5441 8.81915 17.9191C8.44409 18.2942 8.23335 18.8029 8.2333 19.3333V26H4V15.8284L15 4.82842Z" fill="white"/>
</g>
<defs>
<clipPath id="clip0_15_7">
<rect width="30" height="30" fill="white"/>
</clipPath>
</defs>
</svg>
