<svg width="30" height="30" viewBox="0 0 30 30" fill="none" xmlns="http://www.w3.org/2000/svg">
<path d="M9.63373 10.8837L6.76748 13.75H21.25C21.5815 13.75 21.8994 13.8817 22.1339 14.1161C22.3683 14.3505 22.5 14.6685 22.5 15C22.5 15.3315 22.3683 15.6495 22.1339 15.8839C21.8994 16.1183 21.5815 16.25 21.25 16.25H6.76748L9.63373 19.1163C9.75311 19.2316 9.84834 19.3695 9.91385 19.522C9.97936 19.6745 10.0138 19.8385 10.0153 20.0045C10.0167 20.1705 9.98511 20.3351 9.92225 20.4887C9.8594 20.6423 9.76659 20.7819 9.64922 20.8992C9.53186 21.0166 9.39229 21.1094 9.23867 21.1723C9.08505 21.2351 8.92045 21.2668 8.75448 21.2653C8.5885 21.2639 8.42448 21.2294 8.27197 21.1639C8.11947 21.0984 7.98154 21.0031 7.86623 20.8838L2.86623 15.8837C2.63189 15.6493 2.50024 15.3315 2.50024 15C2.50024 14.6685 2.63189 14.3507 2.86623 14.1163L7.86623 9.11625C7.98154 8.99686 8.11947 8.90163 8.27197 8.83612C8.42448 8.77061 8.5885 8.73613 8.75448 8.73469C8.92045 8.73324 9.08505 8.76487 9.23867 8.82772C9.39229 8.89057 9.53186 8.98339 9.64922 9.10076C9.76659 9.21812 9.8594 9.35769 9.92225 9.51131C9.98511 9.66493 10.0167 9.82953 10.0153 9.9955C10.0138 10.1615 9.97936 10.3255 9.91385 10.478C9.84834 10.6305 9.75311 10.7684 9.63373 10.8837ZM26.25 1.25H16.25C15.9185 1.25 15.6005 1.3817 15.3661 1.61612C15.1317 1.85054 15 2.16848 15 2.5C15 2.83152 15.1317 3.14946 15.3661 3.38388C15.6005 3.6183 15.9185 3.75 16.25 3.75H25V26.25H16.25C15.9185 26.25 15.6005 26.3817 15.3661 26.6161C15.1317 26.8505 15 27.1685 15 27.5C15 27.8315 15.1317 28.1495 15.3661 28.3839C15.6005 28.6183 15.9185 28.75 16.25 28.75H26.25C26.5815 28.75 26.8994 28.6183 27.1339 28.3839C27.3683 28.1495 27.5 27.8315 27.5 27.5V2.5C27.5 2.16848 27.3683 1.85054 27.1339 1.61612C26.8994 1.3817 26.5815 1.25 26.25 1.25Z" fill="white"/>
</svg>
