<svg width="30" height="30" viewBox="0 0 30 30" fill="none" xmlns="http://www.w3.org/2000/svg">
<g clip-path="url(#clip0_38_5661)">
<path d="M12.225 11.9167C14.9864 11.9167 17.225 9.6781 17.225 6.91667C17.225 4.15525 14.9864 1.91667 12.225 1.91667C9.46355 1.91667 7.22498 4.15525 7.22498 6.91667C7.22498 9.6781 9.46355 11.9167 12.225 11.9167Z" fill="white"/>
<path d="M13.7 26.5167C13.4246 26.2443 13.2449 25.89 13.1878 25.5069C13.1307 25.1238 13.1993 24.7325 13.3833 24.3917L13.825 23.5583L12.9166 23.2833C12.5462 23.1674 12.2237 22.9338 11.9982 22.618C11.7726 22.3021 11.6562 21.9213 11.6666 21.5333V19.825C11.6659 19.4387 11.7895 19.0625 12.0191 18.7518C12.2487 18.4412 12.5721 18.2127 12.9416 18.1L13.85 17.825L13.4166 16.9917C13.238 16.6555 13.17 16.2715 13.2224 15.8944C13.2748 15.5174 13.4448 15.1665 13.7083 14.8917C13.0672 14.8076 12.4215 14.7631 11.775 14.7583C9.86523 14.7134 7.9691 15.0904 6.22183 15.8625C4.47455 16.6346 2.91917 17.7827 1.66663 19.225V25.6833C1.66663 25.9043 1.75442 26.1163 1.9107 26.2726C2.06698 26.4289 2.27895 26.5167 2.49996 26.5167H13.7Z" fill="white"/>
<path d="M28.0834 19.55L26.4167 19.05C26.3012 18.6384 26.1391 18.2414 25.9334 17.8667L26.7667 16.3167C26.7989 16.2591 26.8107 16.1924 26.8001 16.1273C26.7895 16.0622 26.7572 16.0027 26.7084 15.9583L25.5001 14.7417C25.4535 14.6964 25.3942 14.6665 25.3301 14.656C25.266 14.6456 25.2002 14.6551 25.1417 14.6833L23.6001 15.5167C23.2206 15.3105 22.8213 15.143 22.4084 15.0167L21.9001 13.35C21.8777 13.2885 21.8368 13.2355 21.7831 13.1982C21.7294 13.1609 21.6654 13.1412 21.6001 13.1417H19.8667C19.8017 13.1435 19.7389 13.1652 19.6867 13.204C19.6345 13.2428 19.5956 13.2966 19.5751 13.3583L19.0751 15.025C18.6541 15.1475 18.2486 15.318 17.8667 15.5333L16.3584 14.7C16.2997 14.6688 16.2328 14.6569 16.167 14.6659C16.1012 14.6748 16.0399 14.7043 15.9917 14.75L14.7667 15.95C14.7185 15.9965 14.6867 16.0574 14.6762 16.1236C14.6657 16.1897 14.677 16.2575 14.7084 16.3167L15.5417 17.8333C15.3185 18.2097 15.1369 18.6093 15.0001 19.025L13.3334 19.5333C13.2703 19.5516 13.215 19.59 13.1759 19.6426C13.1367 19.6953 13.116 19.7594 13.1167 19.825V21.5333C13.116 21.599 13.1367 21.663 13.1759 21.7157C13.215 21.7684 13.2703 21.8068 13.3334 21.825L15.0001 22.3333C15.125 22.7415 15.2926 23.1353 15.5001 23.5083L14.6667 25.0917C14.6353 25.1508 14.624 25.2186 14.6345 25.2848C14.645 25.3509 14.6768 25.4118 14.7251 25.4583L15.9667 26.6667C16.0149 26.7124 16.0762 26.7418 16.142 26.7508C16.2078 26.7598 16.2747 26.7478 16.3334 26.7167L17.8917 25.8833C18.2626 26.0828 18.6537 26.242 19.0584 26.3583L19.5584 28.0667C19.5794 28.1297 19.6196 28.1845 19.6734 28.2234C19.7273 28.2623 19.792 28.2832 19.8584 28.2833H21.5667C21.6317 28.2815 21.6945 28.2598 21.7467 28.221C21.7989 28.1822 21.8379 28.1283 21.8584 28.0667L22.3584 26.3583C22.7583 26.2435 23.144 26.0841 23.5084 25.8833L25.0834 26.7167C25.142 26.7478 25.209 26.7598 25.2748 26.7508C25.3406 26.7418 25.4019 26.7124 25.4501 26.6667L26.6667 25.4583C26.7124 25.4102 26.7419 25.3489 26.7509 25.2831C26.7598 25.2173 26.7479 25.1503 26.7167 25.0917L25.8834 23.525C26.0827 23.1599 26.242 22.7743 26.3584 22.375L28.0251 21.8667C28.0877 21.8465 28.1427 21.8079 28.1829 21.7558C28.223 21.7037 28.2465 21.6407 28.2501 21.575V19.85C28.2521 19.7896 28.2376 19.7297 28.2083 19.6769C28.1789 19.6241 28.1358 19.5802 28.0834 19.55ZM20.7251 23.4833C20.1742 23.485 19.6353 23.3231 19.1765 23.0183C18.7176 22.7135 18.3596 22.2794 18.1477 21.7709C17.9357 21.2625 17.8794 20.7026 17.9859 20.1621C18.0923 19.6217 18.3567 19.1249 18.7457 18.7348C19.1346 18.3448 19.6305 18.0788 20.1706 17.9708C20.7108 17.8627 21.2708 17.9173 21.7799 18.1277C22.289 18.3382 22.7242 18.6949 23.0304 19.1528C23.3366 19.6107 23.5 20.1492 23.5001 20.7C23.5001 21.4367 23.208 22.1434 22.6878 22.6652C22.1676 23.1869 21.4618 23.4811 20.7251 23.4833Z" fill="white"/>
</g>
<defs>
<clipPath id="clip0_38_5661">
<rect width="30" height="30" fill="white"/>
</clipPath>
</defs>
</svg>
