<svg width="30" height="32" viewBox="0 0 30 32" fill="none" xmlns="http://www.w3.org/2000/svg">
<path d="M6.48691 15.5021C9.51442 15.5021 11.7769 14.2891 11.7769 13.2058V11.4214C10.6206 12.3065 8.72314 12.8637 6.48691 12.8637C4.25068 12.8637 2.35315 12.3065 1.19692 11.4214V13.2058C1.19692 14.2891 3.45943 15.5021 6.48691 15.5021ZM6.48691 19.067C9.60442 19.067 11.7769 17.8567 11.7769 16.7708V15.2999C10.6206 16.185 8.72314 16.7435 6.48691 16.7435C4.25068 16.7435 2.35315 16.185 1.19692 15.2999V16.7708C1.19692 17.8567 3.36943 19.067 6.48691 19.067ZM6.48691 22.9248C9.51442 22.9248 11.7769 21.7119 11.7769 20.6286V18.8649C10.6206 19.75 8.72314 20.3085 6.48691 20.3085C4.25068 20.3085 2.35315 19.75 1.19692 18.8649V20.6286C1.19692 21.7119 3.45943 22.9248 6.48691 22.9248ZM6.48691 26.8138C9.51442 26.8138 11.7769 25.6021 11.7769 24.5175V22.7227C10.6206 23.6078 8.72314 24.1663 6.48691 24.1663C4.25068 24.1663 2.35315 23.6078 1.19692 22.7227V24.5175C1.19692 25.6021 3.45943 26.8138 6.48691 26.8138ZM6.48691 7.02969C3.3694 7.02969 1.19692 8.24005 1.19692 9.32597C1.19692 10.4132 3.36943 11.6235 6.48691 11.6235C9.60439 11.6235 11.7769 10.4132 11.7769 9.32597C11.7769 8.24002 9.60439 7.02969 6.48691 7.02969ZM6.48691 5.78824C10.1844 5.78824 12.9731 7.3096 12.9731 9.32597V24.8311C12.9731 24.9646 12.9319 25.0877 12.8631 25.19C12.3181 26.863 9.76063 28.0565 6.48688 28.0565C3.21313 28.0565 0.65563 26.863 0.11062 25.19C0.0418604 25.0877 0.000610352 24.9646 0.000610352 24.8311V9.32597C0.000610352 7.3096 2.78935 5.78824 6.48685 5.78824H6.48691ZM26.5663 14.5485C28.5525 15.2599 29.8875 17.2024 29.8875 19.3821C29.8875 22.2019 27.675 24.4956 24.955 24.4956C23.155 24.4956 21.4963 23.477 20.6288 21.8378C20.47 21.5384 20.5763 21.1613 20.8663 20.9967C21.155 20.8309 21.52 20.941 21.6788 21.2417C22.3363 22.4831 23.5913 23.2541 24.955 23.2541C27.015 23.2541 28.69 21.5164 28.69 19.3821C28.69 17.7311 27.68 16.2603 26.1763 15.7212C25.8637 15.6098 25.6975 15.256 25.805 14.9321C25.9125 14.6081 26.2537 14.437 26.5663 14.5485L26.5663 14.5485ZM24.1404 14.4615C24.1404 17.2813 21.9279 19.575 19.2091 19.575C16.4891 19.575 14.2779 17.2813 14.2779 14.4615C14.2779 11.643 16.4891 9.34929 19.2091 9.34929C21.9279 9.34929 24.1404 11.643 24.1404 14.4615ZM19.2091 18.3336C21.2679 18.3336 22.9441 16.5971 22.9441 14.4615C22.9441 12.3272 21.2679 10.5894 19.2091 10.5894C17.1504 10.5894 15.4741 12.3272 15.4741 14.4615C15.4741 16.5971 17.1504 18.3336 19.2091 18.3336Z" fill="white"/>
</svg>
