<svg width="30" height="30" viewBox="0 0 30 30" fill="none" xmlns="http://www.w3.org/2000/svg">
<path fill-rule="evenodd" clip-rule="evenodd" d="M15 7.5C12.2386 7.5 10 9.73857 10 12.5C10 15.2614 12.2386 17.5 15 17.5C17.7615 17.5 20 15.2614 20 12.5C20 9.73857 17.7615 7.5 15 7.5ZM12.5 12.5C12.5 11.1193 13.6192 10 15 10C16.3807 10 17.5 11.1193 17.5 12.5C17.5 13.8807 16.3807 15 15 15C13.6192 15 12.5 13.8807 12.5 12.5Z" fill="white"/>
<path fill-rule="evenodd" clip-rule="evenodd" d="M24.1601 23.5055C21.8775 25.9626 18.6182 27.5 15 27.5C8.09644 27.5 2.5 21.9035 2.5 15C2.5 8.09644 8.09644 2.5 15 2.5C21.9035 2.5 27.5 8.09644 27.5 15C27.5 18.2045 26.2941 21.1274 24.3115 23.3396C24.3217 23.3804 24.3317 23.4214 24.3415 23.4626L24.1601 23.5055ZM5 15C5 9.47715 9.47715 5 15 5C20.5229 5 25 9.47715 25 15C25 17.189 24.2966 19.2136 23.1037 20.8604C23.0984 20.8541 23.0931 20.8479 23.0877 20.8416C22.4871 20.1366 21.7495 19.6694 20.9421 19.3627C19.4009 18.7772 17.4976 18.75 15.625 18.75H14.375C12.5196 18.75 10.7333 18.7722 9.31825 19.3839C8.40296 19.7794 7.69819 20.3871 7.17191 21.2232C5.81237 19.5154 5 17.3526 5 15ZM9.03867 23.0296C10.7033 24.2675 12.7661 25 15 25C17.4205 25 19.6401 24.14 21.37 22.709C21.31 22.6189 21.2481 22.5372 21.1849 22.463C20.9002 22.129 20.5361 21.8827 20.0545 21.6997C19.018 21.3061 17.5944 21.25 15.625 21.25H14.375C12.3884 21.25 11.1605 21.3111 10.3101 21.6786C9.81361 21.8932 9.37771 22.246 9.03867 23.0296Z" fill="white"/>
</svg>
