<svg width="30" height="30" viewBox="0 0 30 30" fill="none" xmlns="http://www.w3.org/2000/svg">
<g clip-path="url(#clip0_16_32)">
<path d="M12.5 0C9.06746 0 6.25 2.81785 6.25 6.24873C6.25 8.09974 7.07111 9.77142 8.36543 10.9193C3.47888 12.7285 0 17.6443 0 23.3338C3.14333e-05 23.7757 0.17569 24.1995 0.488341 24.5119C0.800991 24.8244 1.22503 25 1.66719 25H9.68691C10.0147 23.7891 10.5396 22.6625 11.2315 21.6677H3.46631C4.20365 16.987 7.99414 13.509 12.5 13.509C13.1245 13.509 13.7344 13.578 14.3252 13.7056C14.5281 11.6697 15.9715 9.98134 17.8813 9.40996C18.4324 8.48064 18.75 7.39941 18.75 6.24873C18.75 2.81785 15.9325 0 12.5 0ZM12.5 3.33232C14.1295 3.33232 15.4156 4.61774 15.4156 6.24873C15.4156 7.87972 14.1295 9.16533 12.5 9.16533C10.8705 9.16533 9.58428 7.87972 9.58428 6.24873C9.58428 4.61774 10.8705 3.33232 12.5 3.33232Z" fill="white"/>
<path d="M20 10C17.254 10 15 12.2543 15 14.999C15 16.4798 15.6569 17.8171 16.6923 18.7355C12.7831 20.1828 10 24.1155 10 28.6671C10 29.0206 10.1406 29.3596 10.3907 29.6095C10.6408 29.8595 10.98 30 11.3337 30H20H28.6662C29.0199 30 29.3592 29.8595 29.6093 29.6096C29.8594 29.3596 30 29.0206 30 28.6671C30 24.1155 27.217 20.1828 23.3077 18.7355C24.3432 17.8171 25 16.4798 25 14.999C25 12.2543 22.746 10 20 10ZM20 12.6659C21.3036 12.6659 22.3325 13.6942 22.3325 14.999C22.3325 16.3038 21.3036 17.3323 20 17.3323C18.6964 17.3323 17.6674 16.3038 17.6674 14.999C17.6674 13.6942 18.6964 12.6659 20 12.6659ZM20 20.8072C23.6047 20.8072 26.6371 23.5896 27.227 27.3341H20H12.773C13.3629 23.5896 16.3953 20.8072 20 20.8072Z" fill="white"/>
</g>
<defs>
<clipPath id="clip0_16_32">
<rect width="30" height="30" fill="white"/>
</clipPath>
</defs>
</svg>
